<?xml version="1.0" standalone="no"?>
<!DOCTYPE svg PUBLIC "-//W3C//DTD SVG 20010904//EN"
 "http://www.w3.org/TR/2001/REC-SVG-20010904/DTD/svg10.dtd">
<svg version="1.0" xmlns="http://www.w3.org/2000/svg"
 width="200.000000pt" height="200.000000pt" viewBox="0 0 200.000000 200.000000"
 preserveAspectRatio="xMidYMid meet">
<metadata>
Created by potrace 1.11, written by Peter Selinger 2001-2013
</metadata>
<g transform="translate(0.000000,200.000000) scale(0.100000,-0.100000)"
fill="#000000" stroke="none">
<path d="M275 1778 c-33 -4 -75 -9 -93 -12 -18 -2 -35 0 -38 5 -3 5 -11 9 -17
9 -8 0 -8 -3 1 -9 10 -6 9 -10 -7 -14 -45 -11 -14 -76 37 -78 15 0 67 -1 117
-3 50 -1 100 -7 111 -13 26 -15 26 -16 113 -283 38 -118 90 -278 115 -355 25
-78 46 -145 46 -150 -1 -6 -32 -32 -70 -60 -51 -37 -73 -59 -81 -85 -17 -49
-13 -96 12 -136 43 -70 13 -68 714 -68 587 -1 631 0 648 16 31 32 12 87 -31
89 -9 0 -290 1 -624 2 -333 1 -609 4 -611 7 -6 6 -10 30 -8 47 0 6 31 33 69
60 l67 48 445 1 c399 0 448 2 477 17 39 20 51 44 87 157 15 47 54 167 87 268
32 100 59 194 59 210 0 43 -36 91 -83 112 -34 15 -57 39 -111 114 l-69 95 -31
-21 c-17 -12 -79 -57 -138 -100 l-108 -78 -88 0 c-85 0 -89 1 -100 25 -6 14
-15 25 -20 25 -5 0 -15 -11 -22 -25 l-13 -25 -201 0 c-111 0 -206 -4 -213 -8
-6 -4 -16 -19 -22 -34 -8 -21 -6 -30 11 -47 18 -21 28 -22 156 -21 75 1 152 1
170 0 l33 0 -35 -62 -35 -62 -58 -1 c-66 -1 -83 -8 -83 -35 0 -21 34 -44 54
-37 7 3 18 2 23 -1 6 -4 -38 -42 -98 -86 -61 -43 -111 -77 -113 -75 -2 2 -45
131 -96 287 -51 155 -102 297 -114 315 -24 36 -86 73 -131 79 -16 2 -57 1 -90
-4z m1515 -329 c0 -6 -7 -34 -15 -63 -19 -64 -41 -68 -82 -14 -16 20 -40 44
-55 54 -16 11 -28 22 -28 27 0 4 41 7 90 7 59 0 90 -4 90 -11z"/>
<path d="M715 421 c-81 -34 -83 -162 -2 -196 124 -52 213 120 97 188 -30 18
-63 21 -95 8z"/>
<path d="M1518 414 c-49 -26 -71 -91 -46 -137 32 -61 108 -80 163 -40 103 76
-4 239 -117 177z"/>
</g>
</svg>
