<?xml version="1.0" encoding="iso-8859-1"?>
<!-- Generator: Adobe Illustrator 19.0.0, SVG Export Plug-In . SVG Version: 6.00 Build 0)  -->
<svg version="1.1" id="Capa_1" xmlns="http://www.w3.org/2000/svg" xmlns:xlink="http://www.w3.org/1999/xlink" x="0px" y="0px"
	 viewBox="0 0 512 512" style="enable-background:new 0 0 512 512;" xml:space="preserve">
<path style="fill:#334A5E;" d="M452.8,0H58.133C46.4,0,36.8,9.6,36.8,21.333v469.333C36.8,502.4,46.4,512,58.133,512h395.733
	c10.667,0,18.133-7.467,20.267-17.067h-384c-20.267,0-37.333-16-37.333-36.267s17.067-37.333,37.333-37.333h384v-400
	C474.133,9.6,464.533,0,452.8,0z"/>
<path style="fill:#40596B;" d="M474.133,404.267h-352V0H452.8c11.733,0,21.333,9.6,21.333,21.333V404.267z"/>
<g>
	<path style="fill:#ACB3BA;" d="M474.133,494.933c-128,0-256,0-384,0c-20.267,0-37.333-16-37.333-36.267l0,0
		c0-20.267,16-37.333,37.333-37.333c128,0,256,0,384,0C466.667,444.8,466.667,471.467,474.133,494.933z"/>
	<path style="fill:#ACB3BA;" d="M474.133,421.333c-7.467,24.533-7.467,50.133,0,74.667c-128,0-256,0-384,0
		C69.867,494.933,52.8,478.933,52.8,458.667c0-7.467,2.133-14.933,6.4-20.267c1.067-2.133,3.2-4.267,4.267-6.4
		c6.4-6.4,16-10.667,26.667-10.667C218.133,421.333,346.133,421.333,474.133,421.333z"/>
</g>
<path style="fill:#CDD6E0;" d="M474.133,494.933h-384c-7.467,0-14.933-2.133-20.267-6.4C59.2,482.133,52.8,471.467,52.8,458.667
	c0-7.467,2.133-14.933,6.4-20.267c1.067-2.133,3.2-4.267,5.333-5.333l0,0c6.4-6.4,16-10.667,26.667-10.667h384
	c-1.067,3.2-2.133,7.467-3.2,10.667C466.667,452.267,467.733,474.667,474.133,494.933z"/>
<polygon style="fill:#FF7058;" points="155.2,0 155.2,138.667 191.467,117.333 227.733,138.667 227.733,0 "/>
<rect x="201.07" y="245.33" style="fill:#F2F2F2;" width="194.13" height="100.27"/>
<path style="fill:#C3D0DB;" d="M474.133,421.333c-1.067,3.2-2.133,7.467-3.2,10.667H100.8c-20.267,0-37.333,16-37.333,37.333
	c0,7.467,2.133,14.933,6.4,20.267C59.2,482.133,52.8,471.467,52.8,458.667c0-7.467,2.133-14.933,6.4-20.267
	c1.067-2.133,3.2-4.267,5.333-5.333l0,0c6.4-6.4,16-10.667,26.667-10.667h382.933L474.133,421.333L474.133,421.333z"/>
<g>
</g>
<g>
</g>
<g>
</g>
<g>
</g>
<g>
</g>
<g>
</g>
<g>
</g>
<g>
</g>
<g>
</g>
<g>
</g>
<g>
</g>
<g>
</g>
<g>
</g>
<g>
</g>
<g>
</g>
</svg>
