<?xml version="1.0" encoding="iso-8859-1"?>
<!-- Generator: Adobe Illustrator 19.0.0, SVG Export Plug-In . SVG Version: 6.00 Build 0)  -->
<svg version="1.1" id="Layer_1" xmlns="http://www.w3.org/2000/svg" xmlns:xlink="http://www.w3.org/1999/xlink" x="0px" y="0px"
	 viewBox="0 0 512.207 512.207" style="enable-background:new 0 0 512.207 512.207;" xml:space="preserve">
<rect x="43.263" y="70.5" transform="matrix(0.7071 0.7071 -0.7071 0.7071 81.8451 -34.1922)" style="fill:#E8EAE9;" width="77.866" height="22.4"/>
<path style="fill:#F3705A;" d="M194.143,509.967c26.667-11.733,29.867-69.333,14.933-131.2l169.6-169.6
	c61.867,13.867,119.467,10.667,131.2-14.933c14.933-34.133-46.933-109.867-120.533-156.8c-74.667-48-125.867-45.867-152.533-16
	L20.276,237.967c-28.8,26.667-29.867,77.867,17.067,150.4C84.276,463.034,160.01,524.9,194.143,509.967z"/>
<circle style="fill:#344A5E;" cx="74.676" cy="348.9" r="20.267"/>
<circle style="fill:#FFD15C;" cx="88.543" cy="292.367" r="20.267"/>
<circle style="fill:#FFFFFF;" cx="130.143" cy="335.034" r="20.267"/>
<circle style="fill:#344A5E;" cx="326.41" cy="96.1" r="43.733"/>
<rect x="113.815" y="139.738" transform="matrix(0.7071 -0.7071 0.7071 0.7071 -87.7994 211.5085)" style="fill:#415A6B;" width="195.198" height="143.999"/>
<rect x="105.211" y="85.288" transform="matrix(0.7071 0.7071 -0.7071 0.7071 119.6975 -49.0669)" style="fill:#CED6E0;" width="27.733" height="69.333"/>
<g>
	<polygon style="fill:#344A5E;" points="179.21,141.967 204.81,320.1 224.01,300.9 198.41,122.767 	"/>
	<polygon style="fill:#344A5E;" points="247.476,277.434 221.876,99.3 212.276,108.9 238.943,287.034 	"/>
</g>
<g>
</g>
<g>
</g>
<g>
</g>
<g>
</g>
<g>
</g>
<g>
</g>
<g>
</g>
<g>
</g>
<g>
</g>
<g>
</g>
<g>
</g>
<g>
</g>
<g>
</g>
<g>
</g>
<g>
</g>
</svg>
