<?xml version="1.0" encoding="iso-8859-1"?>
<!-- Generator: Adobe Illustrator 19.0.0, SVG Export Plug-In . SVG Version: 6.00 Build 0)  -->
<svg version="1.1" id="Capa_1" xmlns="http://www.w3.org/2000/svg" xmlns:xlink="http://www.w3.org/1999/xlink" x="0px" y="0px"
	 viewBox="0 0 512 512" style="enable-background:new 0 0 512 512;" xml:space="preserve">
<path style="fill:#DAE5EF;" d="M502.288,339.272h-32V281.56C470.288,163.4,374.16,67.272,256,67.272S41.712,163.4,41.712,281.56
	v57.712h-32V281.56C9.712,145.752,120.192,35.272,256,35.272c135.792,0,246.288,110.48,246.288,246.288V339.272z"/>
<path style="fill:#D03F3E;" d="M78.8,474.472L78.8,474.472c-15.12,0-27.36-12.256-27.36-27.36V305.4
	c0-15.12,12.256-27.36,27.36-27.36l0,0c15.12,0,27.376,12.256,27.376,27.36v141.712C106.176,462.216,93.92,474.472,78.8,474.472z"/>
<g>
	<path style="fill:#3F4347;" d="M106.176,492.712L106.176,492.712c-15.12,0-27.376-12.256-27.376-27.376V287.16
		c0-15.12,12.256-27.376,27.376-27.376l0,0c15.12,0,27.36,12.256,27.36,27.376v178.192
		C133.536,480.456,121.28,492.712,106.176,492.712z"/>
	<path style="fill:#3F4347;" d="M0,376.248c0,36.112,23.024,65.376,51.424,65.376V310.872C23.024,310.872,0,340.136,0,376.248z"/>
</g>
<path style="fill:#D03F3E;" d="M433.2,278.024L433.2,278.024c15.12,0,27.36,12.256,27.36,27.36v141.712
	c0,15.12-12.256,27.36-27.36,27.36l0,0c-15.12,0-27.376-12.256-27.376-27.36V305.384C405.84,290.28,418.08,278.024,433.2,278.024z"
	/>
<g>
	<path style="fill:#3F4347;" d="M405.84,259.784L405.84,259.784c15.12,0,27.376,12.256,27.376,27.376v178.192
		c0,15.12-12.256,27.376-27.376,27.376l0,0c-15.12,0-27.36-12.256-27.36-27.376V287.16
		C378.464,272.04,390.72,259.784,405.84,259.784z"/>
	<path style="fill:#3F4347;" d="M512,376.248c0-36.112-23.024-65.376-51.424-65.376v130.752C488.976,441.624,512,412.36,512,376.248
		z"/>
</g>
<path style="fill:#D03F3E;" d="M64.016,150.856c-13.104-11.872-14.096-32.096-2.224-45.2C111.536,50.76,182.32,19.272,256,19.272
	s144.464,31.488,194.224,86.384c11.856,13.088,10.864,33.328-2.24,45.2c-13.088,11.856-33.328,10.864-45.2-2.24
	C365.152,107.096,311.648,83.272,256,83.272s-109.152,23.824-146.784,65.36C97.344,161.72,77.12,162.728,64.016,150.856z"/>
<g>
</g>
<g>
</g>
<g>
</g>
<g>
</g>
<g>
</g>
<g>
</g>
<g>
</g>
<g>
</g>
<g>
</g>
<g>
</g>
<g>
</g>
<g>
</g>
<g>
</g>
<g>
</g>
<g>
</g>
</svg>
