<?xml version="1.0" encoding="iso-8859-1"?>
<!-- Generator: Adobe Illustrator 19.0.0, SVG Export Plug-In . SVG Version: 6.00 Build 0)  -->
<svg version="1.1" id="Capa_1" xmlns="http://www.w3.org/2000/svg" xmlns:xlink="http://www.w3.org/1999/xlink" x="0px" y="0px"
	 viewBox="0 0 511.858 511.858" style="enable-background:new 0 0 511.858 511.858;" xml:space="preserve">
<path style="fill:#CDD6E0;" d="M391.396,189.867h-268.8c-10.667,0-20.267-7.467-22.4-17.067c-3.2-10.667,1.067-21.333,10.667-26.667
	l147.2-90.667l147.2,90.667c9.6,5.333,13.867,16,10.667,26.667C411.662,183.467,402.062,189.867,391.396,189.867z M256.996,74.667
	L118.329,160c-5.333,3.2-4.267,7.467-3.2,9.6c0,1.067,2.133,6.4,8.533,6.4h268.8c6.4,0,7.467-4.267,8.533-6.4
	c0-1.067,1.067-6.4-3.2-9.6L256.996,74.667z"/>
<path style="fill:#FF7058;" d="M390.329,244.267c-46.933-28.8-54.4-117.333-54.4-117.333v-23.467c0-1.067-1.067-2.133-1.067-3.2
	l-19.2-11.733c-1.067,0-2.133,0-2.133,1.067c0,9.6,0,30.933,0,52.267c0,28.8-21.333,54.4-49.067,56.533
	c-33.067,3.2-60.8-22.4-60.8-54.4V88.533c0-1.067-1.067-1.067-2.133-1.067l-19.2,11.733c-1.067,1.067-1.067,2.133-1.067,3.2v23.467
	c0,0-8.533,87.467-54.4,116.267c12.8,104.533-10.667,165.333-51.2,254.933c120.533,48,210.133-39.467,360.533-2.133
	C394.596,407.467,377.529,347.733,390.329,244.267z"/>
<path style="fill:#CDD6E0;" d="M256.996,72.533c-4.267,0-7.467-3.2-7.467-7.467V54.4c0-8.533,4.267-14.933,12.8-19.2
	c3.2-2.133,5.333-5.333,5.333-9.6c0-5.333-4.267-10.667-10.667-10.667c-5.333,0-10.667,4.267-10.667,10.667
	c0,4.267-3.2,7.467-7.467,7.467c-4.267,0-7.467-3.2-7.467-7.467c0-13.867,11.733-25.6,25.6-25.6c13.867,0,25.6,11.733,25.6,25.6
	c0,9.6-5.333,18.133-13.867,22.4c-1.067,0-4.267,2.133-4.267,5.333V64C264.462,69.333,261.262,72.533,256.996,72.533z"/>
<g>
</g>
<g>
</g>
<g>
</g>
<g>
</g>
<g>
</g>
<g>
</g>
<g>
</g>
<g>
</g>
<g>
</g>
<g>
</g>
<g>
</g>
<g>
</g>
<g>
</g>
<g>
</g>
<g>
</g>
</svg>
