<?xml version="1.0" encoding="iso-8859-1"?>
<!-- Generator: Adobe Illustrator 19.0.0, SVG Export Plug-In . SVG Version: 6.00 Build 0)  -->
<svg version="1.1" id="Capa_1" xmlns="http://www.w3.org/2000/svg" xmlns:xlink="http://www.w3.org/1999/xlink" x="0px" y="0px"
	 viewBox="0 0 455.111 455.111" style="enable-background:new 0 0 455.111 455.111;" xml:space="preserve">
<circle style="fill:#E24C4B;" cx="227.556" cy="227.556" r="227.556"/>
<path style="fill:#D1403F;" d="M455.111,227.556c0,125.156-102.4,227.556-227.556,227.556c-78.222,0-146.489-39.822-187.733-98.133
	c36.978,25.6,81.067,39.822,128,39.822c125.156,0,227.556-102.4,227.556-227.556c0-48.356-14.222-92.444-39.822-129.422
	C415.289,81.067,455.111,149.333,455.111,227.556z"/>
<path style="fill:#FFFFFF;" d="M301.511,258.844c-2.844,2.844-4.267,7.111-2.844,11.378l11.378,65.422
	c1.422,9.956-8.533,18.489-18.489,12.8l-58.311-31.289c-4.267-1.422-8.533-1.422-11.378,0l-58.311,31.289
	c-8.533,4.267-19.911-2.844-18.489-12.8l11.378-65.422c1.422-4.267,0-8.533-2.844-11.378l-48.356-45.511
	c-7.111-7.111-2.844-19.911,7.111-21.333l65.422-9.956c4.267,0,7.111-2.844,9.956-7.111l28.444-59.733
	c4.267-8.533,17.067-8.533,22.756,0l29.867,59.733c1.422,4.267,5.689,5.689,9.956,7.111L344.178,192
	c9.956,1.422,14.222,14.222,7.111,21.333L301.511,258.844z"/>
<g style="opacity:0.15;">
	
		<ellipse transform="matrix(-0.5353 -0.8447 0.8447 -0.5353 118.4703 266.847)" style="fill:#FFFFFF;" cx="132.641" cy="100.834" rx="27.023" ry="48.357"/>
</g>
<g>
</g>
<g>
</g>
<g>
</g>
<g>
</g>
<g>
</g>
<g>
</g>
<g>
</g>
<g>
</g>
<g>
</g>
<g>
</g>
<g>
</g>
<g>
</g>
<g>
</g>
<g>
</g>
<g>
</g>
</svg>
